<svg xmlns="http://www.w3.org/2000/svg" width="25" height="26" viewBox="0 0 25 26">
    <path fill="#F9572E" fill-rule="nonzero" stroke="#F9572E" stroke-width=".5" d="M18.504 24.886a11.072 11.072 0 0 1-3.318-.58 21.217 21.217 0 0 1-8.37-5.45C2.603 14.642.787 11.397.744 8.006a.67.67 0 0 1 .663-.679h.008c.368 0 .666.296.671.663.038 3.008 1.737 5.974 5.68 9.917 6.043 6.043 10.826 5.65 11.078 5.624a5.02 5.02 0 0 0 1.234-.311 4.83 4.83 0 0 0 1.203-.681.706.706 0 0 1 .1-.065l.823-.806c.43-.412.449-1.092.042-1.526l-3.365-3.366a1.083 1.083 0 0 0-1.526.047l-1.696 1.696a.671.671 0 0 1-.798.113l-.339-.189a16.553 16.553 0 0 1-7.29-7.29l-.033-.06c-.05-.092-.1-.18-.148-.265a.67.67 0 0 1 .108-.808l1.697-1.696c.433-.41.453-1.092.045-1.526L5.535 3.43a1.008 1.008 0 0 0-.74-.292 1.137 1.137 0 0 0-.78.332l-.893.949a4.685 4.685 0 0 0-.445.698.671.671 0 1 1-1.19-.62 6.01 6.01 0 0 1 .636-.975l.923-.98.014-.014a2.472 2.472 0 0 1 1.709-.731 2.335 2.335 0 0 1 1.714.684L9.85 5.85c.93.959.91 2.49-.045 3.423l-1.34 1.339a15.134 15.134 0 0 0 6.603 6.6l1.338-1.337a2.426 2.426 0 0 1 3.422-.048l3.367 3.368c.93.96.91 2.489-.044 3.424l-.005.005-.961.942a.67.67 0 0 1-.233.148 6.36 6.36 0 0 1-2.954 1.15l-.01.002a4.78 4.78 0 0 1-.483.021zm6.24-11.545C24.734 6.478 19.173.917 12.31.91a.671.671 0 1 0 0 1.342c6.122.007 11.084 4.968 11.09 11.09a.67.67 0 1 0 1.342 0zm-4.365-.516a7.56 7.56 0 0 0-7.552-7.552.671.671 0 1 0 0 1.342 6.218 6.218 0 0 1 6.21 6.21.67.67 0 1 0 1.342 0z"/>
</svg>
